<?xml version="1.0" ?>
<svg xmlns="http://www.w3.org/2000/svg" version="1.1" width="128" height="128" viewBox="0 0 128 128">
  <defs/>
  <rect x="0.0" y="0.0" width="128.0" height="128.0" stroke-width="0.0" fill="rgb(255, 0, 0)" opacity="1.0"/>
  <path d="M -76.57908630371094 70.65217590332031 C -71.95845031738281 69.23705291748047 -67.37642669677734 67.87387084960938 -36.50786590576172 58.69648742675781 C -35.517765045166016 59.001834869384766 -39.04759216308594 59.61165237426758 -41.83641052246094 60.28340530395508 C -17.59063720703125 53.0735969543457 -12.656831741333008 51.606082916259766 -9.039278030395508 50.58755874633789 C -22.267303466796875 55.0777587890625 -9.23157787322998 50.936641693115234 -19.270849227905273 53.57145309448242 C 10.604713439941406 44.689186096191406 -0.4365491271018982 47.971771240234375 6.544525623321533 46.47615432739258 C 6.491636753082275 46.39607238769531 2.0509982109069824 47.23530197143555 7.730669975280762 45.5435905456543 C 38.149391174316406 36.501277923583984 42.82373809814453 35.142269134521484 41.78730010986328 35.45819091796875 C 41.43508529663086 35.524497985839844 51.09827423095703 32.65182113647461 61.303672790527344 29.645843505859375 C 56.825653076171875 65.2104263305664 59.480674743652344 43.30218505859375 68.26513671875 52.53929138183594 C 75.02923583984375 75.28980255126953 76.47055053710938 80.13776397705078 77.8358383178711 84.72998809814453 C 76.80236053466797 88.03255462646484 73.39147186279297 85.40796661376953 77.41456604003906 98.91299438476562 C 75.43109893798828 91.89745330810547 61.9696044921875 93.58499145507812 78.52291107177734 87.03992462158203 C 87.24616241455078 116.37998962402344 88.7005844116211 121.27228546142578 89.94564056396484 125.46199035644531 C 88.15230560302734 119.49386596679688 86.22347259521484 112.95307159423828 93.00103759765625 135.74517822265625 C 94.76270294189453 141.6692352294922 92.02503204345703 132.46249389648438 97.79999542236328 151.8949432373047 C 99.62574768066406 158.04660034179688 101.0643310546875 162.86106872558594 102.37261199951172 167.63258361816406 C 70.28556823730469 177.1733856201172 67.58563232421875 177.94285583496094 73.4790267944336 169.5262451171875 C 73.77046203613281 175.9112091064453 75.91990661621094 172.84153747558594 74.65996551513672 175.874267578125 C 42.66600799560547 185.3863525390625 38.0662841796875 186.75413513183594 36.44504165649414 187.22239685058594 C 32.3852653503418 162.6115264892578 36.52373123168945 183.9444122314453 41.1593017578125 183.52418518066406 C 42.48815155029297 185.4384765625 38.036834716796875 186.762939453125 7.710418224334717 195.77935791015625 C 1.2865604162216187 197.65798950195312 -1.8623833656311035 197.4397735595703 -10.015923500061035 190.99111938476562 C 5.3776984214782715 195.97247314453125 2.9787893295288086 190.5763702392578 4.32448148727417 196.7856903076172 C -5.060511589050293 199.57589721679688 -12.024773597717285 201.64630126953125 -35.548370361328125 208.63742065429688 C -45.0328254699707 176.71983337402344 -40.97517776489258 190.2537384033203 -35.813514709472656 184.4296112060547 C -39.2943115234375 185.42999267578125 -43.32489013671875 182.25648498535156 -43.854671478271484 180.71624755859375 C -45.13452911376953 176.41390991210938 -46.497291564941406 171.83035278320312 -54.944984436035156 143.41705322265625 C -57.42799758911133 135.0638885498047 -54.31242752075195 145.5430450439453 -59.903350830078125 126.74049377441406 C -61.479461669921875 121.43818664550781 -62.877750396728516 116.68623352050781 -63.87371063232422 113.20362854003906 C -61.465850830078125 121.44544219970703 -60.54582595825195 124.45169830322266 -64.63282775878906 110.83361053466797 C -69.74420166015625 93.64048767089844 -70.82225799560547 89.99485778808594 -68.96099853515625 94.89599609375 C -67.65650939941406 100.43443298339844 -67.09646606445312 102.54523468017578 -76.57898712158203 70.6522216796875" stroke-width="0.0" fill="rgb(255, 0, 0)" opacity="0.9644917" stroke="rgb(255, 0, 0)" stroke-opacity="0.9644917" stroke-linecap="round" stroke-linejoin="round"/>
  <path d="M 168.54974365234375 -13.601921081542969 C 165.88919067382812 14.56018352508545 162.3544464111328 16.761831283569336 158.83401489257812 18.963834762573242 C 154.96762084960938 21.157094955444336 150.57168579101562 23.388010025024414 143.6943817138672 25.514406204223633 C 143.90330505371094 22.387306213378906 140.7987518310547 29.14590835571289 137.5885009765625 32.0470085144043 C 134.13768005371094 34.33742904663086 130.6096649169922 36.53837203979492 126.61227416992188 38.75505447387695 C 111.90767669677734 36.60585021972656 118.06588745117188 21.659067153930664 116.46428680419922 44.70170974731445 C 112.93049621582031 47.52630615234375 109.40520477294922 49.58122253417969 105.90914916992188 51.866703033447266 C 102.38329315185547 54.12936782836914 98.85118865966797 56.32907485961914 93.77367401123047 58.574466705322266 C 88.03480529785156 32.37895202636719 82.50867462158203 61.267059326171875 55.973445892333984 66.07682037353516 C 54.859222412109375 33.28495407104492 54.71820068359375 29.07632827758789 54.584110260009766 24.924924850463867 C 69.77003479003906 31.060527801513672 74.41934967041016 20.269901275634766 80.89601135253906 23.23876190185547 C 56.31489562988281 19.152685165405273 54.91632080078125 32.22655487060547 54.456058502197266 21.02678108215332 C 54.436763763427734 20.41931915283203 54.411556243896484 19.870920181274414 54.27702331542969 15.941770553588867 C 53.185035705566406 -16.611894607543945 53.056583404541016 -20.472227096557617 52.9827766418457 -22.9395809173584 C 53.65454864501953 -28.60249900817871 54.80859375 -30.57552719116211 64.67575073242188 -35.1472282409668 C 55.65081787109375 -27.009185791015625 55.64964294433594 -21.958740234375 52.72358703613281 -30.366601943969727 C 51.93313217163086 -53.963905334472656 51.90924835205078 -56.454647064208984 55.99876022338867 -62.54963302612305 C 84.0980224609375 -61.41232681274414 87.76533508300781 -59.457862854003906 91.43310546875 -57.497161865234375 C 94.31934356689453 -33.26897048950195 82.15977478027344 -52.682586669921875 76.82650756835938 -50.33403778076172 C 105.52186584472656 -49.65291976928711 107.42591857910156 -47.63899612426758 113.41414642333984 -45.76096725463867 C 117.09725952148438 -43.794395446777344 120.76009368896484 -41.74205017089844 124.43111419677734 -39.88355255126953 C 128.08978271484375 -37.93452453613281 131.76351928710938 -35.97818374633789 135.4436798095703 -34.021236419677734 C 139.11474609375 -32.06621551513672 142.7824249267578 -30.10584259033203 146.43313598632812 -27.725339889526367 C 125.7846908569336 -25.07792091369629 130.2025909423828 -23.132421493530273 157.44126892089844 -22.2827205657959 C 161.07139587402344 -20.193628311157227 164.78192138671875 -18.272228240966797 168.5495147705078 -13.601838111877441" stroke-width="0.0" fill="rgb(0, 255, 255)" opacity="0.87218106" stroke="rgb(0, 255, 255)" stroke-opacity="0.87218106" stroke-linecap="round" stroke-linejoin="round"/>
  <path d="M -67.85919952392578 -72.04369354248047 C -34.59040069580078 -71.14736938476562 -51.739952087402344 -71.6091537475586 -31.624034881591797 -71.0675048828125 C -21.98633575439453 -70.79508209228516 -17.413875579833984 -69.7930679321289 -38.68026351928711 -66.26659393310547 C -25.61066246032715 -70.0425033569336 -19.01737403869629 -67.77230834960938 -23.981332778930664 -70.8615493774414 C -19.290294647216797 -70.73528289794922 -14.102378845214844 -70.59556579589844 18.508098602294922 -69.7169418334961 C 23.30503273010254 -69.5875473022461 28.096752166748047 -69.45860290527344 32.79136657714844 -69.33173370361328 C 31.65961456298828 -69.32967376708984 14.02147388458252 -69.83757019042969 45.29097366333008 -68.99552917480469 C 48.82466125488281 -68.8990478515625 36.71611785888672 -69.22135925292969 35.58231735229492 -69.2562026977539 C 37.84315872192383 -69.19595336914062 42.50345993041992 -69.07048797607422 76.0885009765625 -68.16575622558594 C 75.18394470214844 -34.57890701293945 75.05443572998047 -29.78493309020996 75.22626495361328 -36.16706085205078 C 75.49907684326172 -46.571128845214844 75.29158020019531 -39.80844497680664 75.22364807128906 -38.441551208496094 C 75.18074035644531 -34.46554183959961 75.05424499511719 -29.77423095703125 74.15679931640625 3.5400443077087402 C 74.05341339111328 4.095648288726807 74.17778015136719 -14.505559921264648 73.66361236572266 -5.849406719207764 C 74.39379119873047 -5.259174823760986 74.27207946777344 -0.7386863827705383 73.39144897460938 31.951051712036133 C 64.68637084960938 36.395206451416016 44.44929504394531 40.99297332763672 44.77692413330078 24.936704635620117 C 73.57556915283203 23.6279239654541 73.49056243896484 28.25921058654785 73.3729248046875 32.636871337890625 C 73.21334838867188 38.55689239501953 73.11515045166016 42.202415466308594 72.21061706542969 75.78195190429688 C 39.74867248535156 74.90772247314453 59.22117233276367 75.43205261230469 57.207706451416016 75.37787628173828 C 52.75149154663086 75.25777435302734 48.21529006958008 75.13558197021484 30.672042846679688 74.66272735595703 C 31.909542083740234 73.90338897705078 29.273244857788086 74.32521057128906 25.835920333862305 74.34418487548828 C 18.89592170715332 74.34443664550781 0.7573058009147644 73.85651397705078 -3.9959049224853516 73.72608947753906 C 9.659223556518555 74.09656524658203 5.03255033493042 73.97199249267578 -28.088865280151367 73.07987976074219 C -33.349464416503906 72.93812561035156 -37.86498260498047 72.81657409667969 -40.692413330078125 72.7250747680664 C -27.725082397460938 69.81774139404297 -31.58830451965332 67.32157135009766 -39.17057800292969 72.44950103759766 C -33.38606643676758 72.93719482421875 -38.14933776855469 72.80889892578125 -71.73712158203125 71.90397644042969 C -71.4294204711914 60.47902297973633 -71.4755859375 62.18598937988281 -70.58062744140625 28.97456932067871 C -70.44731140136719 24.600448608398438 -70.88135528564453 43.55801773071289 -68.25160217285156 42.382415771484375 C -70.81878662109375 37.81412124633789 -70.70246887207031 33.496822357177734 -69.82421112060547 0.8950091600418091 C -69.36966705322266 -1.3904362916946411 -69.69331359863281 1.5154917240142822 -69.43280029296875 -7.186350345611572 C -69.94721984863281 5.585633754730225 -69.90496063232422 3.8982856273651123 -69.33311462402344 -17.337078094482422 C -68.86856842041016 -28.76352310180664 -69.12974548339844 -23.593826293945312 -69.32428741455078 -17.657079696655273 C -68.5058364868164 -48.03715133666992 -68.3813247680664 -52.66158676147461 -68.27508544921875 -56.596683502197266 C -68.27666473388672 -56.542266845703125 -68.7633285522461 -38.47586441040039 -67.85906982421875 -72.04376983642578" stroke-width="0.0" fill="rgb(255, 255, 255)" opacity="1.0" stroke="rgb(255, 255, 255)" stroke-opacity="1.0" stroke-linecap="round" stroke-linejoin="round"/>
  <path d="M 183.01309204101562 100.18766021728516 C 194.39088439941406 105.09896850585938 190.6978302001953 125.20833587646484 186.84469604492188 135.1038818359375 C 165.2461700439453 136.34600830078125 164.85354614257812 129.75408935546875 150.10108947753906 120.39675903320312 C 151.43150329589844 115.05272674560547 168.81410217285156 116.99248504638672 165.57440185546875 147.6222686767578 C 137.56283569335938 149.56752014160156 155.32957458496094 140.0854034423828 154.8033905029297 153.7447967529297 C 151.22059631347656 155.9071502685547 147.608154296875 157.9209442138672 118.18206024169922 158.9444580078125 C 139.93397521972656 162.00775146484375 136.79983520507812 163.934814453125 132.18154907226562 166.26124572753906 C 101.66416931152344 168.22314453125 102.24940490722656 170.12071228027344 94.71099853515625 171.48214721679688 C 99.30353546142578 147.02804565429688 109.1765365600586 152.67410278320312 82.84182739257812 178.16989135742188 C 82.8607406616211 145.776123046875 82.85469818115234 141.6133270263672 105.6694564819336 137.5206756591797 C 104.55693054199219 133.59893798828125 82.90726470947266 129.10060119628906 103.99884796142578 150.91268920898438 C 110.28629302978516 129.78358459472656 106.9159164428711 138.9142303466797 82.85691833496094 140.25347900390625 C 83.01200103759766 108.49517059326172 89.01985931396484 106.49026489257812 84.24361419677734 106.55992126464844 C 110.35275268554688 123.8617172241211 109.01447296142578 120.15482330322266 82.92356872558594 116.11956787109375 C 82.97563934326172 90.90335083007812 82.94689178466797 104.6437759399414 83.00053405761719 75.44593048095703 C 85.00348663330078 71.10267639160156 83.2090072631836 71.04557037353516 105.83324432373047 90.5348892211914 C 91.5307846069336 86.8786392211914 84.26546478271484 81.86454772949219 83.00352478027344 76.84747314453125 C 97.35679626464844 61.572444915771484 91.5199966430664 61.867313385009766 122.48079681396484 56.39728546142578 C 125.02436065673828 87.09827423095703 101.04901123046875 71.50296783447266 124.3752212524414 62.644371032714844 C 136.99716186523438 64.7638168334961 140.2330780029297 83.28601837158203 132.78866577148438 97.40044403076172 C 127.73052215576172 85.61400604248047 140.866455078125 73.09036254882812 154.97190856933594 75.26463317871094 C 158.5865936279297 77.30101013183594 162.1851043701172 80.48990631103516 161.52752685546875 87.18444061279297 C 152.530029296875 84.0132827758789 145.65158081054688 85.56624603271484 176.343017578125 87.68846893310547 C 177.7179412841797 92.61896514892578 183.46826171875 107.99453735351562 187.06683349609375 116.05819702148438 C 190.47354125976562 96.90943145751953 192.7766876220703 98.14342498779297 183.01296997070312 100.18769836425781" stroke-width="0.0" fill="rgb(255, 0, 0)" opacity="0.43641603" stroke="rgb(255, 0, 0)" stroke-opacity="0.43641603" stroke-linecap="round" stroke-linejoin="round"/>
  <path d="M 124.0533676147461 36.13515090942383 C 161.62271118164062 42.62523651123047 169.73159790039062 45.914737701416016 176.3236846923828 50.141990661621094 C 182.7821502685547 54.57338333129883 186.3907012939453 63.675537109375 191.85145568847656 66.09463500976562 C 192.91395568847656 83.08753204345703 188.6521453857422 103.95377349853516 198.67520141601562 88.8940658569336 C 200.6015167236328 93.13856506347656 200.55078125 100.53251647949219 198.8978271484375 110.15900421142578 C 193.2594757080078 142.9538116455078 190.85888671875 149.8699493408203 187.3462677001953 155.75709533691406 C 183.56468200683594 161.86683654785156 179.0929412841797 167.76901245117188 173.62637329101562 171.05520629882812 C 167.4801483154297 175.9547119140625 161.29981994628906 180.0699462890625 153.5683135986328 182.236572265625 C 146.62342834472656 176.15237426757812 137.39576721191406 179.66944885253906 127.77033233642578 182.87242126464844 C 90.2025146484375 176.41970825195312 82.4167709350586 173.0408172607422 75.62976837158203 168.7633056640625 C 74.1439437866211 162.94261169433594 77.27655792236328 144.36354064941406 60.22895431518555 152.3755340576172 C 56.232906341552734 146.84658813476562 53.750823974609375 140.02891540527344 52.53240203857422 132.95584106445312 C 51.312435150146484 125.89896392822266 51.35245895385742 118.5861587524414 53.141754150390625 108.12413024902344 C 58.66474151611328 76.06505584716797 62.77840805053711 69.77481842041016 64.83838653564453 63.098297119140625 C 68.3255615234375 58.18136215209961 72.6926040649414 51.08437728881836 78.3405990600586 46.5483283996582 C 83.99951934814453 42.07316970825195 90.67523956298828 38.638614654541016 98.35276794433594 36.782596588134766 C 105.91471099853516 34.84959030151367 114.51887512207031 34.495086669921875 124.05338287353516 36.13505554199219" stroke-width="0.0" fill="rgb(255, 255, 0)" opacity="0.38121316" stroke="rgb(255, 255, 0)" stroke-opacity="0.38121316" stroke-linecap="round" stroke-linejoin="round"/>
  <path d="M 74.57235717773438 102.27677154541016 C 69.58049011230469 107.97281646728516 47.371761322021484 99.5149154663086 68.3371810913086 113.1496353149414 C 42.198246002197266 114.69725036621094 47.595054626464844 95.9971923828125 47.70390319824219 91.58171081542969 C 48.221954345703125 94.26497650146484 49.19908905029297 109.18177032470703 59.316444396972656 126.6114273071289 C 34.926780700683594 125.77822875976562 35.179264068603516 108.8531494140625 53.646568298339844 116.97727966308594 C 52.57771682739258 136.18600463867188 49.61336898803711 138.4810333251953 21.318803787231445 138.59002685546875 C 30.430866241455078 134.79539489746094 45.349388122558594 116.81443786621094 16.718425750732422 118.7705307006836 C 17.730470657348633 124.00820922851562 32.64646530151367 124.59095001220703 39.007904052734375 128.77220153808594 C 37.649818420410156 156.6766357421875 35.97779846191406 158.92822265625 8.706639289855957 161.05186462402344 C 2.850191116333008 160.12718200683594 2.190615177154541 156.72300720214844 16.116609573364258 133.73692321777344 C 20.711910247802734 137.5510711669922 21.013818740844727 134.28648376464844 2.601696729660034 128.3001251220703 C -8.70431900024414 129.10853576660156 -14.888152122497559 129.6184844970703 -14.478028297424316 153.00369262695312 C 5.660489559173584 152.28086853027344 -9.554190635681152 150.40188598632812 0.6739972829818726 121.81825256347656 C -0.5075971484184265 121.34877014160156 -3.204676389694214 148.27755737304688 -34.469547271728516 147.59579467773438 C -34.05574417114258 118.35218048095703 -20.26181983947754 117.46532440185547 -18.4249267578125 116.70706939697266 C -40.17481994628906 117.20186614990234 -33.77052688598633 125.94618225097656 -32.178836822509766 123.75621032714844 C -37.74890899658203 141.4229278564453 -52.29592514038086 139.56695556640625 -58.639835357666016 139.4613494873047 C -57.33189392089844 108.24530029296875 -30.66370964050293 106.06669616699219 -34.529109954833984 128.20445251464844 C -44.27473449707031 126.49130249023438 -29.894779205322266 101.42736053466797 -30.125646591186523 98.10494995117188 C -57.90958786010742 118.786865234375 -58.51259231567383 116.50294494628906 -56.203983306884766 87.19930267333984 C -31.940404891967773 109.24469757080078 -52.703060150146484 108.32848358154297 -47.26911163330078 85.64700317382812 C -39.109989166259766 82.22966003417969 -57.93405532836914 99.96089172363281 -58.29816436767578 86.47334289550781 C -58.13314437866211 65.91133880615234 -58.135860443115234 64.41732788085938 -57.905921936035156 60.067691802978516 C -29.698408126831055 58.19527053833008 -54.163909912109375 83.01753997802734 -32.73649978637695 78.67903137207031 C -51.0379753112793 52.178619384765625 -30.334125518798828 46.16749954223633 -57.932926177978516 43.62192916870117 C -55.263938903808594 70.85909271240234 -25.251502990722656 61.05302429199219 -25.881698608398438 43.79098129272461 C -20.695058822631836 68.66942596435547 -44.436771392822266 67.56425476074219 -41.75629806518555 38.00032424926758 C -14.043381690979004 37.43075180053711 -31.391801834106445 51.217411041259766 -13.938538551330566 64.39717102050781 C -2.508155345916748 63.609195709228516 -24.59505844116211 61.96416091918945 -25.54583740234375 32.89305877685547 C 5.706458568572998 32.25874328613281 1.3030520677566528 31.517593383789062 -12.486878395080566 37.16143035888672 C 11.96284294128418 54.701011657714844 4.214812755584717 30.688312530517578 -1.0781038999557495 27.847614288330078 C 21.925119400024414 27.151138305664062 10.010453224182129 26.93059730529785 27.104848861694336 51.427146911621094 C 29.331907272338867 25.186471939086914 3.9970762729644775 23.675291061401367 35.198307037353516 22.89266014099121 C 35.69976806640625 25.257139205932617 22.316537857055664 56.02739715576172 40.07814025878906 58.56848907470703 C 41.93899917602539 32.0743293762207 43.57944107055664 34.37314224243164 16.466806411743164 36.47932434082031 C 40.531246185302734 67.62320709228516 38.24900436401367 69.9764175415039 21.52927589416504 47.747615814208984 C 51.57211685180664 45.942996978759766 53.06669616699219 48.1421012878418 54.980384826660156 59.76240921020508 C 56.70587921142578 52.735591888427734 58.344078063964844 55.02685546875 59.67647933959961 78.95596313476562 C 47.16513442993164 87.20325469970703 36.61813735961914 70.11569213867188 39.081504821777344 87.58686828613281 C 49.2984504699707 94.99195098876953 62.99738311767578 96.94562530517578 42.08687973022461 71.05874633789062 C 71.47506713867188 73.45600128173828 73.11661529541016 75.68120574951172 74.57241821289062 102.27678680419922" stroke-width="0.0" fill="rgb(0, 0, 0)" opacity="0.7289039" stroke="rgb(0, 0, 0)" stroke-opacity="0.7289039" stroke-linecap="round" stroke-linejoin="round"/>
</svg>
